<?xml version="1.0" encoding="utf-8"?>
<!-- Generator: Adobe Illustrator 25.0.0, SVG Export Plug-In . SVG Version: 6.00 Build 0)  -->
<svg version="1.1" id="Layer_1" xmlns="http://www.w3.org/2000/svg" xmlns:xlink="http://www.w3.org/1999/xlink" x="0px" y="0px"
	 viewBox="0 0 538.58 171.1" style="enable-background:new 0 0 538.58 171.1;" xml:space="preserve">
<style type="text/css">
	.st0{fill:#231F20;}
	.st1{fill:none;}
</style>
<g>
	<g>
		<path d="M3.84,135.84h13.33c2.63,0,5,0.38,7.11,1.14c2.11,0.75,3.77,1.8,5,3.15c1.22,1.34,1.84,2.85,1.84,4.53
			c0,1.91-0.82,3.58-2.45,5.01c-1.63,1.43-3.9,2.38-6.8,2.85c3.27,0.54,5.83,1.62,7.69,3.25c1.86,1.63,2.79,3.54,2.79,5.72
			c0,1.81-0.68,3.45-2.04,4.91c-1.36,1.46-3.23,2.61-5.61,3.45s-5.05,1.26-7.99,1.26H3.84V135.84z M17.38,151.81
			c2.22,0,4.21-0.3,5.95-0.91c1.75-0.61,3.12-1.46,4.12-2.55s1.5-2.31,1.5-3.65c0-1.41-0.51-2.67-1.53-3.78
			c-1.02-1.11-2.44-1.97-4.25-2.59c-1.81-0.62-3.86-0.93-6.12-0.93H6.08v14.41H17.38z M16.49,169.53c2.58,0,4.91-0.34,6.97-1.03
			c2.06-0.69,3.67-1.66,4.83-2.92c1.16-1.26,1.74-2.68,1.74-4.25c0-1.55-0.56-2.92-1.67-4.13c-1.11-1.21-2.64-2.16-4.59-2.85
			c-1.95-0.69-4.17-1.03-6.67-1.03H6.08v16.22H16.49z"/>
		<path d="M173.82,168.76c-2.37-1.56-4.01-3.85-4.92-6.88l1.71-0.45c0.87,2.72,2.32,4.74,4.35,6.07c2.03,1.32,4.33,1.99,6.91,1.99
			c3.07,0,5.56-0.7,7.48-2.09c1.91-1.39,2.87-3.21,2.87-5.46c0-2.28-0.96-4.1-2.87-5.44c-1.92-1.34-4.56-2.5-7.93-3.48
			c-2.35-0.67-4.3-1.39-5.86-2.17c-1.56-0.77-2.81-1.76-3.75-2.97c-0.95-1.21-1.42-2.72-1.42-4.53c0-1.64,0.49-3.12,1.48-4.43
			c0.99-1.31,2.36-2.33,4.12-3.07c1.76-0.74,3.78-1.11,6.06-1.11c2.73,0,5.17,0.67,7.34,2.02c2.16,1.34,3.7,3.34,4.61,5.99
			l-1.76,0.4c-0.84-2.28-2.16-3.98-3.98-5.11c-1.82-1.12-3.89-1.69-6.2-1.69c-2.92,0-5.28,0.65-7.08,1.94
			c-1.8,1.29-2.7,2.98-2.7,5.06c0,1.55,0.42,2.82,1.25,3.83c0.84,1.01,1.93,1.82,3.27,2.42c1.34,0.61,3.12,1.23,5.32,1.87
			c3.64,1.07,6.55,2.43,8.73,4.05c2.18,1.63,3.27,3.75,3.27,6.37c0,1.78-0.52,3.38-1.56,4.79c-1.04,1.41-2.49,2.5-4.35,3.28
			c-1.86,0.77-3.96,1.16-6.31,1.16C178.87,171.1,176.19,170.32,173.82,168.76z"/>
		<path d="M251.34,135.84h13.58c3.3,0,6.23,0.45,8.81,1.34c2.58,0.89,4.59,2.13,6.04,3.73c1.45,1.6,2.17,3.42,2.17,5.47
			c0,2.05-0.72,3.86-2.17,5.44c-1.45,1.58-3.46,2.81-6.04,3.7c-2.58,0.89-5.51,1.33-8.81,1.33h-11.1v14.26h-2.47V135.84z
			 M264.77,155.23c4.4,0,7.95-0.81,10.65-2.44c2.7-1.63,4.05-3.77,4.05-6.42s-1.35-4.8-4.05-6.45c-2.7-1.65-6.25-2.47-10.65-2.47
			h-10.95v17.78H264.77z"/>
		<path d="M343.6,168.76c-2.75-1.56-4.91-3.73-6.47-6.5c-1.56-2.77-2.34-5.89-2.34-9.35c0-3.46,0.78-6.57,2.34-9.34
			s3.72-4.94,6.47-6.5c2.75-1.56,5.86-2.34,9.32-2.34c3.46,0,6.56,0.78,9.32,2.34c2.75,1.56,4.92,3.73,6.5,6.5
			c1.58,2.77,2.37,5.89,2.37,9.34c0,3.46-0.79,6.57-2.37,9.35c-1.58,2.77-3.74,4.94-6.5,6.5c-2.75,1.56-5.86,2.34-9.32,2.34
			C349.46,171.1,346.36,170.32,343.6,168.76z M361.41,167.37c2.5-1.41,4.47-3.37,5.89-5.89c1.43-2.52,2.14-5.37,2.14-8.56
			c0-3.19-0.72-6.04-2.14-8.56c-1.43-2.52-3.39-4.48-5.89-5.89c-2.5-1.41-5.33-2.12-8.49-2.12c-3.12,0-5.94,0.71-8.46,2.12
			c-2.52,1.41-4.48,3.37-5.89,5.89c-1.41,2.52-2.12,5.37-2.12,8.56c0,3.19,0.71,6.05,2.12,8.56c1.41,2.52,3.37,4.48,5.89,5.89
			c2.52,1.41,5.34,2.12,8.46,2.12C356.08,169.49,358.91,168.78,361.41,167.37z"/>
		<path d="M428.91,135.84h2.23v19.9l22.89-19.9h2.71l-18.42,16.07l19.91,19.19h-2.71l-18.69-17.98l-5.69,4.84v13.15h-2.23V135.84z"
			/>
		<path d="M90.34,135.84h23.65v1.61H92.58v14.51h19.5v1.61h-19.5v15.92h22.15v1.61H90.34V135.84z"/>
		<path d="M514.1,135.84h23.65v1.61h-21.41v14.51h19.5v1.61h-19.5v15.92h22.15v1.61H514.1V135.84z"/>
	</g>
	<g>
		<path class="st0" d="M0.05,74.37H0.03v-1.28C0.03,73.51,0.03,73.95,0.05,74.37z"/>
		<path class="st0" d="M78.35,5.05v5.14c0-0.29-0.03-0.57-0.05-0.89c-0.1-1.1-0.13-2.22,0-3.31C78.32,5.65,78.35,5.33,78.35,5.05z"
			/>
		<g>
			<path class="st0" d="M161.81,0.06c-30.46,1.25-51,22.73-50.55,53.95c0.44,31.81,23.28,53.48,54.18,52.49
				c32.21,0.21,54.31-23.72,53.03-56.53C217.27,19.56,194.05-1.29,161.81,0.06z M164.22,93.91c-23.59-0.52-39.7-17.77-39.02-42.12
				c0.63-23.7,16.52-39.2,40.14-39.12c23.8,0.08,39.7,17.25,39.2,41.29C204.07,77.79,187.26,94.41,164.22,93.91z"/>
			<path class="st0" d="M77.15,1.68H32.41c-0.65,0-1.17,0.53-1.17,1.17v9.71c0,0.66,0.54,1.2,1.2,1.2h13.4
				c2.21,0,4.05,1.76,4.06,3.97c0,0.08,0,0.17,0,0.26c-0.16,9.66-0.05,19.31-0.05,28.97h-0.1c0,9.5,0.03,19.03,0,28.53
				c0,0.68-0.05,1.38-0.13,2.06c-0.94,9.55-6.94,15.27-16.86,16.02c-9.55,0.73-16.78-4.05-18.79-13.08
				c-0.5-2.17-0.57-4.38-0.65-6.63v-7.73c0-0.63-0.52-1.15-1.15-1.15H1.17c-0.63,0-1.15,0.52-1.15,1.15v0.63C0,67.06,0,67.4,0,67.66
				c0.03,0.97,0.03,1.96,0.03,2.92v2.51c0,0.42,0,0.86,0.03,1.28c0,2.32,0.1,4.65,0.47,6.92C2.11,91.07,6.11,99.55,16,103.62
				c7.59,3.16,15.61,3.47,23.59,2.01c9.68-1.8,17.33-6.73,20.33-16.57c1.67-5.43,2.77-11.25,2.9-16.94
				c0.39-15.84,0.08-31.71,0.13-47.55c0.03-8.06,0.08-10.23,4.54-10.8h9.66c0.68,0,1.2-0.52,1.2-1.17v-2.4
				c0-0.29-0.03-0.57-0.05-0.89c-0.1-1.1-0.13-2.22,0-3.31c0.03-0.34,0.05-0.65,0.05-0.94V2.86C78.35,2.2,77.83,1.68,77.15,1.68z"/>
		</g>
		<line class="st1" x1="305.44" y1="94.49" x2="303.3" y2="100.96"/>
		<path class="st0" d="M407.64,2.78v9.73c0,0.62-0.5,1.12-1.12,1.12h-5.98c-1.91,0.1-2.32,1.91-2.9,3.58
			c-6.08,18.3-12.19,36.59-18.27,54.89c-1.83,5.45-3.65,10.94-5.48,16.42l-0.39,1.15l-4.81,14.64c-0.17,0.52-0.65,0.86-1.19,0.86
			h-13.67c-0.54,0-1.02-0.34-1.19-0.86l-2.06-6.14l-3.42-10.15c-0.73-2.19-1.46-4.38-2.19-6.58l-0.89-2.66
			c-0.97-2.9-1.91-5.82-2.9-8.72c-3.05-9.19-6.13-18.35-9.21-27.53l-0.5-1.46l-3.81-11.64l-1.59,4.41l-0.03,0.08
			c-0.42,1.02-0.76,1.91-1.07,2.82c-0.18,0.52-0.37,1.07-0.55,1.59c-7.07,20.88-14.2,41.73-21.14,62.64l-0.05,0.13l-1.1,3.27
			c-0.16,0.48-0.61,0.81-1.12,0.81h-13.57c-0.51,0-0.96-0.32-1.12-0.81l-1.93-5.75c-0.39-1.1-0.84-2.35-1.3-3.81
			c-0.81-2.4-1.62-4.83-2.43-7.26l-2.35-6.97h0.03c-6.99-21.01-13.99-42.02-20.91-63.06c-0.23-0.68-0.47-1.3-0.78-1.85
			c-0.7-1.28-2.09-2.04-3.55-2.04h-4.36c-0.81,0-1.46-0.65-1.46-1.46V3.12c0-0.81,0.65-1.46,1.46-1.46h38
			c0.85,0,1.54,0.69,1.54,1.54v9.32c0,0.62-0.5,1.12-1.12,1.12h-17.75c7.26,22.13,14.22,43.51,21.17,64.78l0.13,0.37l3.11,9.19
			c0.72,0,0.71,0,1.43,0c8.38-24.38,16.73-48.76,25.53-74.33h-15.01c-0.63,0-1.15-0.52-1.15-1.15V2.8c0-0.63,0.52-1.15,1.15-1.15
			h43.79c0.66,0,1.2,0.54,1.2,1.2v9.58c0,0.66-0.54,1.2-1.2,1.2h-14.25c8.53,25.32,16.78,49.77,25.03,74.25c0.79,0,0.77,0,1.57,0
			c8.04-24.37,16.1-48.75,24.53-74.25h-18.61c-0.65,0-1.17-0.53-1.17-1.17V3.4c0-0.97,0.78-1.75,1.75-1.75h38.1
			C407.14,1.65,407.64,2.16,407.64,2.78z"/>
		<path class="st0" d="M538.53,83.19c0.03,6.08-0.13,12.14,0.05,18.22c0.05,2.66-0.76,3.65-3.5,3.65
			c-25.66-0.08-51.31-0.08-76.99-0.03c-4.25-0.03-8.53,0-12.79,0h-2.8c-0.74,0-1.35-0.6-1.35-1.35v-9.23c0-0.74,0.6-1.35,1.35-1.35
			h6.01c1.51-0.03,2.74,0,3.73,0c5.22,0,4.2-0.42,4.25-7.86c0.1-21.51,0.1-43.04,0-64.54c-0.03-6.99,0.57-7.23-4.75-7.23h-9.43
			c-0.64,0-1.16-0.52-1.16-1.16V2.89c0-0.64,0.52-1.16,1.16-1.16h7.42c2.95,0.03,5.9,0.03,8.85,0h5.43c22.76,0,45.54,0.13,68.3-0.08
			c4.33-0.05,5.38,1.36,5.19,5.43c-0.31,6.6-0.26,13.21-0.16,19.84v4.06c0,0.65-0.53,1.18-1.18,1.18l-10.71,0
			c-0.65,0-1.18-0.55-1.18-1.2c-0.01-5.03-0.07-9.46,0.05-13.91c0.08-2.69-1.02-3.65-3.65-3.63c-15.71,0.08-31.45,0.1-47.16,0
			c-2.92-0.03-3.86,1.12-3.84,3.91c0.08,8.53,0.08,17.09-0.08,25.66c-0.08,3.31,1.33,4.28,4.41,4.25c7.44-0.08,14.85,0,22.29,0
			c1.23,0,2.45,0,3.71-0.03h10.11c0.58,0,1.06,0.47,1.06,1.06v9.16c0,0.58-0.47,1.06-1.06,1.06h-2.68
			c-3.73-0.03-7.44-0.03-11.14-0.03c-6.79,0-13.52,0.05-20.31,0.08c-6.21,0-6.24,0-6.29,6c-0.03,8.01,0.08,16-0.1,24.01
			c-0.08,3.26,0.81,4.65,4.41,4.59c15.71-0.13,31.45-0.08,47.16,0.08c3.42,0.05,4.72-1.15,4.54-4.49c-0.16-3.5,0-6.97-0.05-10.47
			v-2.86c0-0.67,0.54-1.21,1.21-1.21h10.5c0.67,0,1.21,0.54,1.21,1.21v2.86C538.55,79.51,538.53,81.1,538.53,83.19z"/>
	</g>
</g>
</svg>
